<svg xmlns="http://www.w3.org/2000/svg" version="1.1" xmlns:xlink="http://www.w3.org/1999/xlink" xmlns:svgjs="http://svgjs.dev/svgjs" width="1500" height="935" viewBox="0 0 1500 935"><g transform="matrix(1,0,0,1,-0.9090909090909918,133.2834965034965)"><svg viewBox="0 0 396 247" data-background-color="#dbefed" preserveAspectRatio="xMidYMid meet" height="935" width="1500" xmlns="http://www.w3.org/2000/svg" xmlns:xlink="http://www.w3.org/1999/xlink"><g id="tight-bounds" transform="matrix(1,0,0,1,0.2400000000000091,-0.09999999999999432)"><svg viewBox="0 0 395.52 247.2" height="247.2" width="395.52"><g><svg></svg></g><g><svg viewBox="0 0 395.52 247.2" height="247.2" width="395.52"><g transform="matrix(1,0,0,1,75.54432,93.02525251533743)"><svg viewBox="0 0 244.43135999999998 61.14949496932515" height="61.14949496932515" width="244.43135999999998"><g><svg viewBox="0 0 244.43135999999998 61.14949496932515" height="61.14949496932515" width="244.43135999999998"><g><svg viewBox="0 0 244.43135999999998 61.14949496932515" height="61.14949496932515" width="244.43135999999998"><g><svg viewBox="0 0 244.43135999999998 61.14949496932515" height="61.14949496932515" width="244.43135999999998"><g id="textblocktransform"><svg viewBox="0 0 244.43135999999998 61.14949496932515" height="61.14949496932515" width="244.43135999999998" id="textblock"><g><svg viewBox="0 0 244.43135999999998 61.14949496932515" height="61.14949496932515" width="244.43135999999998"><g transform="matrix(1,0,0,1,0,0)"><svg width="244.43135999999998" viewBox="1.25 -35.21 143.24 35.839999999999996" height="61.14949496932515" data-palette-color="#cb1106"><path d="M6.96 0.63L6.96 0.63Q5.57 0.63 4.05 0.12 2.54-0.39 1.54-1.42L1.54-1.42Q1.25-1.71 1.25-2.05L1.25-2.05Q1.25-2.2 1.4-2.8 1.56-3.39 1.76-4.03 1.95-4.66 2-4.86L2-4.86Q2.1-5.15 2.27-5.43 2.44-5.71 2.81-5.71L2.81-5.71Q3.27-5.71 4.25-5.1 5.22-4.49 6.49-4.49L6.49-4.49Q8.72-4.49 8.72-6.64L8.72-6.64Q8.72-8.03 7.82-8.57 6.93-9.11 5.91-9.64L5.91-9.64Q3.86-10.74 2.78-12.33 1.71-13.92 1.71-16.28L1.71-16.28Q1.71-19.29 3.48-20.97 5.25-22.66 8.2-22.66L8.2-22.66Q8.57-22.66 9.34-22.56 10.11-22.46 10.94-22.25 11.77-22.05 12.35-21.69 12.94-21.34 12.94-20.85L12.94-20.85Q12.94-20.39 12.74-19.84 12.55-19.29 12.43-18.82L12.43-18.82Q12.33-18.51 12.16-18.21 11.99-17.92 11.57-17.92L11.57-17.92Q11.06-17.92 10.47-18.19 9.89-18.46 9.2-18.46L9.2-18.46Q8.28-18.46 7.57-17.91 6.86-17.36 6.86-16.36L6.86-16.36Q6.86-15.21 7.56-14.58 8.25-13.94 9.28-13.45 10.3-12.96 11.33-12.26 12.35-11.55 13.05-10.29 13.75-9.03 13.75-6.84L13.75-6.84Q13.75-3.71 12-1.54 10.25 0.63 6.96 0.63ZM18.43-22.14L21.73-22.14Q22.63-22.14 22.73-21.26L22.73-21.26Q22.8-20.78 22.85-20.29 22.9-19.8 22.95-19.31L22.95-19.31Q22.95-19.26 23-19.03 23.04-18.8 23.17-18.8L23.17-18.8Q23.29-18.8 23.4-18.95 23.51-19.09 23.56-19.17L23.56-19.17Q25.02-21.04 27.12-21.88 29.22-22.71 31.54-22.71L31.54-22.71Q33.44-22.71 35.04-21.91 36.64-21.12 37.62-19.67 38.6-18.21 38.6-16.21L38.6-16.21Q38.6-12.43 38.68-8.62 38.77-4.81 38.77-1.03L38.77-1.03Q38.77 0 37.77 0L37.77 0 33.93 0Q33.01 0 32.93-1L32.93-1Q32.86-2.05 32.88-3.11 32.91-4.17 32.88-5.22L32.88-5.22Q32.86-7.47 32.86-9.69 32.86-11.91 32.86-14.14L32.86-14.14Q32.86-15.87 31.86-16.74 30.86-17.6 29.2-17.6L29.2-17.6Q27.12-17.6 25.79-16.33 24.46-15.06 23.81-13.21 23.17-11.35 23.17-9.57L23.17-9.57Q23.17-7.42 23.14-5.29 23.12-3.15 23.09-1L23.09-1Q23.09 0 22.09 0L22.09 0 18.26 0Q17.26 0 17.26-1.03L17.26-1.03Q17.26-2.39 17.29-3.75 17.33-5.1 17.36-6.45L17.36-6.45Q17.43-12.16 17.43-17.87L17.43-17.87 17.43-21.14Q17.43-22.14 18.43-22.14L18.43-22.14ZM52.14 0.46L52.14 0.46Q48.97 0.46 46.82-1.05 44.67-2.56 43.59-5.07 42.5-7.57 42.5-10.5L42.5-10.5 42.5-10.89Q42.55-13.96 43.78-16.67 45.01-19.38 47.36-21.06 49.7-22.73 53.02-22.73L53.02-22.73Q55.07-22.73 56.84-21.96 58.61-21.19 60.15-19.87L60.15-19.87Q60.32-19.7 60.44-19.7L60.44-19.7Q60.74-19.7 60.72-20.31 60.71-20.92 60.9-21.53 61.08-22.14 61.86-22.14L61.86-22.14 65.3-22.14Q66.3-22.14 66.3-21.14L66.3-21.14Q66.3-20.09 66.29-19.04 66.28-17.99 66.28-16.94L66.28-16.94Q66.28-14.26 66.32-11.55 66.35-8.84 66.38-6.15L66.38-6.15Q66.4-4.88 66.44-3.6 66.47-2.32 66.47-1.03L66.47-1.03Q66.47 0 65.47 0L65.47 0 61.64 0Q60.98 0 60.79-0.43 60.59-0.85 60.62-1.44 60.64-2.03 60.62-2.49L60.62-2.49Q60.62-2.56 60.59-2.73 60.57-2.91 60.44-2.91L60.44-2.91Q60.35-2.91 60.26-2.83 60.18-2.76 60.1-2.71L60.1-2.71Q58.39-1.27 56.42-0.4 54.44 0.46 52.14 0.46ZM54.63-4.74L54.63-4.74Q56.37-4.74 57.84-5.46 59.32-6.18 60.15-7.74L60.15-7.74Q60.2-7.84 60.38-8.24 60.57-8.64 60.57-8.74L60.57-8.74Q60.57-9.59 60.55-10.45 60.54-11.3 60.54-12.13L60.54-12.13Q60.54-12.52 60.57-13 60.59-13.48 60.54-13.84L60.54-13.84Q60.52-14.01 60.36-14.36 60.2-14.7 60.13-14.84L60.13-14.84Q59.27-16.38 57.71-17.14 56.15-17.9 54.44-17.9L54.44-17.9Q52.63-17.9 51.26-16.99 49.9-16.09 49.13-14.61 48.36-13.13 48.36-11.38L48.36-11.38Q48.36-9.62 49.16-8.11 49.97-6.59 51.4-5.66 52.83-4.74 54.63-4.74ZM78.63-16.65L78.63-16.65Q78.63-16.85 78.29-16.85L78.29-16.85 71.77-16.85Q70.77-16.85 70.77-17.85L70.77-17.85Q70.77-18.68 70.76-19.49 70.74-20.31 70.74-21.14L70.74-21.14Q70.74-22.14 71.75-22.14L71.75-22.14 86.22-22.14Q86.56-22.14 86.97-22.03 87.37-21.92 87.37-21.46L87.37-21.46Q87.37-21.26 87.28-21.06 87.2-20.85 87.1-20.65L87.1-20.65Q86.91-20.29 86.24-19.06 85.56-17.82 84.64-16.13 83.71-14.43 82.71-12.61 81.71-10.79 80.84-9.19 79.97-7.59 79.44-6.58 78.9-5.57 78.9-5.52L78.9-5.52Q78.9-5.32 79.24-5.32L79.24-5.32 86.88-5.32Q87.88-5.32 87.88-4.35L87.88-4.35 87.91-1.03Q87.91 0 86.91 0L86.91 0 71.16 0Q70.84 0 70.41-0.11 69.99-0.22 69.99-0.66L69.99-0.66Q69.99-0.88 70.09-1.1 70.18-1.32 70.28-1.49L70.28-1.49Q70.5-1.88 71.18-3.1 71.87-4.32 72.81-6.01 73.75-7.69 74.76-9.51 75.77-11.33 76.65-12.92 77.53-14.5 78.08-15.54 78.63-16.58 78.63-16.65ZM99.67-16.65L99.67-16.65Q99.67-16.85 99.33-16.85L99.33-16.85 92.81-16.85Q91.81-16.85 91.81-17.85L91.81-17.85Q91.81-18.68 91.8-19.49 91.79-20.31 91.79-21.14L91.79-21.14Q91.79-22.14 92.79-22.14L92.79-22.14 107.27-22.14Q107.61-22.14 108.01-22.03 108.41-21.92 108.41-21.46L108.41-21.46Q108.41-21.26 108.33-21.06 108.24-20.85 108.14-20.65L108.14-20.65Q107.95-20.29 107.28-19.06 106.61-17.82 105.68-16.13 104.75-14.43 103.75-12.61 102.75-10.79 101.88-9.19 101.02-7.59 100.48-6.58 99.94-5.57 99.94-5.52L99.94-5.52Q99.94-5.32 100.28-5.32L100.28-5.32 107.92-5.32Q108.93-5.32 108.93-4.35L108.93-4.35 108.95-1.03Q108.95 0 107.95 0L107.95 0 92.2 0Q91.88 0 91.46-0.11 91.03-0.22 91.03-0.66L91.03-0.66Q91.03-0.88 91.13-1.1 91.23-1.32 91.32-1.49L91.32-1.49Q91.54-1.88 92.23-3.1 92.91-4.32 93.85-6.01 94.79-7.69 95.8-9.51 96.82-11.33 97.7-12.92 98.57-14.5 99.12-15.54 99.67-16.58 99.67-16.65ZM113.46-34.2L113.46-34.2Q113.46-35.21 114.47-35.21L114.47-35.21 118.32-35.21Q119.32-35.21 119.32-34.2L119.32-34.2Q119.32-30.05 119.3-25.9 119.27-21.75 119.27-17.6L119.27-17.6Q119.27-13.45 119.3-9.3 119.32-5.15 119.32-1L119.32-1Q119.32 0 118.32 0L118.32 0 114.47 0Q113.46 0 113.46-1L113.46-1Q113.46-5.15 113.49-9.3 113.51-13.45 113.51-17.6L113.51-17.6Q113.51-21.75 113.49-25.9 113.46-30.05 113.46-34.2ZM135.09 0.59L135.09 0.59Q131.53 0.59 128.88-0.83 126.23-2.25 124.77-4.86 123.3-7.47 123.3-11.06L123.3-11.06Q123.3-14.4 124.69-17.07 126.08-19.73 128.62-21.28 131.16-22.83 134.58-22.83L134.58-22.83Q138.8-22.83 141.21-20.46 143.61-18.09 144.47-14.16L144.47-14.16Q144.49-14.09 144.49-13.92L144.49-13.92Q144.49-13.55 144.31-13.37 144.13-13.18 143.83-13.06L143.83-13.06Q143-12.67 142.07-12.38 141.15-12.08 140.27-11.74L140.27-11.74Q137.7-10.79 135.12-9.88 132.53-8.96 129.99-7.93L129.99-7.93Q129.79-7.84 129.79-7.69L129.79-7.69Q129.79-7.62 129.84-7.52L129.84-7.52Q130.82-5.76 132.53-4.91 134.24-4.05 136.19-4.05L136.19-4.05Q137.73-4.05 139.06-4.54 140.39-5.03 141.68-5.76L141.68-5.76Q141.86-5.86 142.03-5.93 142.2-6.01 142.37-6.01L142.37-6.01Q142.71-6.01 142.89-5.8 143.08-5.59 143.2-5.32L143.2-5.32Q143.3-5.15 143.58-4.55 143.86-3.96 144.11-3.36 144.37-2.76 144.37-2.59L144.37-2.59Q144.37-2.32 144.22-2.15 144.08-1.98 143.88-1.83L143.88-1.83Q142.15-0.63 139.67-0.02 137.19 0.59 135.09 0.59ZM128.96-11.3L128.96-11.3Q131.43-12.16 133.9-13.01 136.36-13.87 138.8-14.72L138.8-14.72Q138.19-16.06 137.11-17.07 136.02-18.07 134.43-18.07L134.43-18.07Q132.58-18.07 131.36-17.07 130.14-16.06 129.55-14.51 128.96-12.96 128.96-11.3Z" opacity="1" transform="matrix(1,0,0,1,0,0)" fill="#cb1106" class="wordmark-text-0" data-fill-palette-color="primary" id="text-0"></path></svg></g></svg></g></svg></g></svg></g><g></g></svg></g></svg></g></svg></g><g><path d="M84.135 78.589A122.216 122.216 0 0 1 311.385 78.589L305.871 78.589A116.701 116.701 0 0 0 89.649 78.589L84.135 78.589M84.135 168.611A122.216 122.216 0 0 0 311.385 168.611L305.871 168.611A116.701 116.701 0 0 1 89.649 168.611L84.135 168.611" fill="#cb1106" stroke="transparent" data-fill-palette-color="tertiary"></path></g></svg></g><defs></defs></svg><rect width="395.52" height="247.2" fill="none" stroke="none" visibility="hidden"></rect></g></svg></g></svg>